<svg width="105" height="26" viewBox="0 0 105 26" fill="none" xmlns="http://www.w3.org/2000/svg">
<path d="M12.1389 0.391438L1.11017 5.63008C0.432104 5.95216 0 6.63578 0 7.38645V9.23855C0 10.6669 1.48852 11.6078 2.77872 10.9949L12.1389 6.54884C12.661 6.30086 13.2663 6.29798 13.7907 6.541L23.488 11.0349C24.7767 11.6321 26.25 10.691 26.25 9.27064V7.39941C26.25 6.64206 25.8103 5.95363 25.1231 5.63519L13.7907 0.383596C13.2663 0.140575 12.661 0.143449 12.1389 0.391438Z" fill="url(#paint0_linear)"/>
<rect x="6.48145" y="11.3428" width="12.963" height="1.94444" fill="#00A8CC"/>
<rect x="6.48145" y="14.5835" width="12.963" height="1.94444" fill="#142850"/>
<rect x="6.48145" y="17.8242" width="12.963" height="1.94444" fill="#00A8CC"/>
<rect x="6.48145" y="21.0649" width="12.963" height="1.94444" fill="#142850"/>
<path d="M43.1293 8.67492H38.6531V21.019H36.1783V8.67492H31.7415V6.66357H43.1293V8.67492ZM42.2912 15.5864C42.2912 14.5413 42.4983 13.6014 42.9124 12.7666C43.3265 11.9253 43.9082 11.2811 44.6575 10.8342C45.4068 10.3806 46.2679 10.1538 47.2407 10.1538C48.6802 10.1538 49.8469 10.6172 50.7408 11.544C51.6413 12.4708 52.1277 13.7 52.2 15.2315L52.2099 15.7935C52.2099 16.8452 52.0061 17.7851 51.5986 18.6133C51.1977 19.4415 50.6192 20.0824 49.8633 20.5359C49.114 20.9895 48.2464 21.2162 47.2604 21.2162C45.7552 21.2162 44.5491 20.7167 43.642 19.7176C42.7415 18.7119 42.2912 17.3743 42.2912 15.7048V15.5864ZM44.6871 15.7935C44.6871 16.8912 44.9139 17.7523 45.3674 18.3767C45.8209 18.9946 46.4519 19.3035 47.2604 19.3035C48.0689 19.3035 48.6966 18.988 49.1436 18.357C49.5971 17.726 49.8239 16.8025 49.8239 15.5864C49.8239 14.5085 49.5906 13.654 49.1239 13.023C48.6638 12.392 48.036 12.0765 47.2407 12.0765C46.4585 12.0765 45.8374 12.3887 45.3773 13.0131C44.9171 13.631 44.6871 14.5578 44.6871 15.7935ZM63.5779 15.7935C63.5779 17.4433 63.2033 18.7612 62.454 19.7472C61.7046 20.7265 60.699 21.2162 59.4369 21.2162C58.2669 21.2162 57.3303 20.8317 56.627 20.0627V25.1206H54.2311V10.351H56.4396L56.5382 11.4356C57.2416 10.5811 58.1979 10.1538 59.4074 10.1538C60.7088 10.1538 61.7276 10.6402 62.4638 11.6131C63.2066 12.5793 63.5779 13.9235 63.5779 15.6456V15.7935ZM61.1919 15.5864C61.1919 14.5216 60.9783 13.677 60.5511 13.0525C60.1304 12.4281 59.5257 12.1159 58.7369 12.1159C57.7575 12.1159 57.0542 12.5201 56.627 13.3286V18.0612C57.0608 18.8894 57.7707 19.3035 58.7566 19.3035C59.5191 19.3035 60.114 18.9978 60.5412 18.3865C60.975 17.7687 61.1919 16.8353 61.1919 15.5864ZM74.9756 15.7935C74.9756 17.4499 74.6042 18.7678 73.8614 19.7472C73.1252 20.7265 72.1097 21.2162 70.8148 21.2162C69.566 21.2162 68.5932 20.766 67.8964 19.8655L67.7781 21.019H65.609V5.87481H68.0049V11.3764C68.695 10.5614 69.6251 10.1538 70.7951 10.1538C72.0966 10.1538 73.1187 10.637 73.8614 11.6032C74.6042 12.5694 74.9756 13.9202 74.9756 15.6555V15.7935ZM72.5797 15.5864C72.5797 14.4296 72.3759 13.562 71.9684 12.9835C71.5609 12.4051 70.9693 12.1159 70.1937 12.1159C69.1551 12.1159 68.4255 12.5694 68.0049 13.4765V17.8739C68.4321 18.8006 69.1683 19.264 70.2134 19.264C70.9627 19.264 71.5412 18.9847 71.9487 18.426C72.3562 17.8673 72.5665 17.0226 72.5797 15.8921V15.5864ZM81.6899 21.2162C80.1715 21.2162 78.9391 20.7397 77.9926 19.7866C77.0526 18.8269 76.5827 17.5518 76.5827 15.9611V15.6653C76.5827 14.6005 76.7864 13.6507 77.1939 12.8159C77.608 11.9746 78.1865 11.3206 78.9292 10.8539C79.672 10.3872 80.5002 10.1538 81.4138 10.1538C82.8665 10.1538 83.9872 10.6172 84.7759 11.544C85.5713 12.4708 85.9689 13.7822 85.9689 15.478V16.4442H78.9982C79.0705 17.325 79.363 18.0217 79.8757 18.5344C80.395 19.0471 81.0457 19.3035 81.8279 19.3035C82.9256 19.3035 83.8195 18.8598 84.5097 17.9724L85.8013 19.2049C85.3741 19.8425 84.8022 20.3387 84.0858 20.6937C83.3759 21.042 82.5772 21.2162 81.6899 21.2162ZM81.404 12.0765C80.7467 12.0765 80.2142 12.3065 79.8067 12.7666C79.4058 13.2267 79.1494 13.8676 79.0377 14.6892H83.6026V14.5118C83.5501 13.7098 83.3364 13.1051 82.9618 12.6976C82.5871 12.2835 82.0678 12.0765 81.404 12.0765ZM90.8395 7.75798V10.351H92.7227V12.1258H90.8395V18.0809C90.8395 18.4884 90.9184 18.7842 91.0762 18.9683C91.2405 19.1457 91.5297 19.2345 91.9438 19.2345C92.2199 19.2345 92.4992 19.2016 92.7819 19.1359V20.9895C92.2363 21.1406 91.7105 21.2162 91.2043 21.2162C89.3639 21.2162 88.4437 20.2007 88.4437 18.1696V12.1258H86.6887V10.351H88.4437V7.75798H90.8395ZM100.936 21.019C100.831 20.8153 100.738 20.4833 100.66 20.0232C99.8971 20.8186 98.9638 21.2162 97.8595 21.2162C96.7881 21.2162 95.9139 20.9106 95.2369 20.2993C94.5599 19.688 94.2213 18.9321 94.2213 18.0316C94.2213 16.8945 94.642 16.0235 95.4834 15.4188C96.3313 14.8075 97.5407 14.5019 99.1117 14.5019H100.581V13.8019C100.581 13.2497 100.426 12.8093 100.117 12.4807C99.8084 12.1455 99.3384 11.9779 98.7074 11.9779C98.1619 11.9779 97.7149 12.1159 97.3665 12.392C97.0182 12.6615 96.844 13.0065 96.844 13.4272H94.4481C94.4481 12.8422 94.642 12.2966 95.0298 11.7905C95.4176 11.2778 95.9435 10.8769 96.6074 10.5877C97.2778 10.2985 98.0238 10.1538 98.8455 10.1538C100.094 10.1538 101.09 10.4694 101.833 11.1004C102.576 11.7248 102.957 12.6056 102.977 13.7427V18.5542C102.977 19.5138 103.111 20.2796 103.381 20.8514V21.019H100.936ZM98.3032 19.2936C98.7764 19.2936 99.2201 19.1786 99.6342 18.9485C100.055 18.7185 100.37 18.4096 100.581 18.0217V16.0104H99.2891C98.4018 16.0104 97.7346 16.1649 97.2877 16.4738C96.8407 16.7827 96.6172 17.2198 96.6172 17.7851C96.6172 18.2452 96.7684 18.6133 97.0707 18.8894C97.3797 19.1589 97.7905 19.2936 98.3032 19.2936Z" fill="#142850"/>
<defs>
<linearGradient id="paint0_linear" x1="13.125" y1="0" x2="13.125" y2="12.3148" gradientUnits="userSpaceOnUse">
<stop stop-color="#00A8CC"/>
<stop offset="1" stop-color="#142850"/>
</linearGradient>
</defs>
</svg>
