<svg width="20" height="20" viewBox="0 0 20 20" fill="none" xmlns="http://www.w3.org/2000/svg">
<path d="M10 0C4.478 0 0 4.478 0 10C0 15.522 4.478 20 10 20C15.522 20 20 15.522 20 10C20 4.478 15.522 0 10 0ZM10.2119 15.8223C10.2118 15.8223 10.2121 15.8223 10.2119 15.8223H10.2095C9.20776 15.8218 8.22342 15.5707 7.34924 15.094L4.17648 15.9261L5.02563 12.8255C4.5018 11.9182 4.22623 10.8888 4.22668 9.83429C4.22806 6.53534 6.91299 3.85147 10.2119 3.85147C11.8129 3.85208 13.3157 4.47525 14.4456 5.60608C15.5757 6.73706 16.1977 8.24036 16.1971 9.83902C16.1957 13.1381 13.5104 15.8223 10.2119 15.8223V15.8223Z" fill="#00A8CC"/>
<path d="M10.2141 4.8623C7.47013 4.8623 5.23853 7.09299 5.2373 9.83499C5.237 10.7746 5.50006 11.6897 5.99796 12.4815L6.11621 12.6696L5.61359 14.5048L7.49637 14.011L7.6781 14.1187C8.44181 14.5719 9.31736 14.8116 10.21 14.812H10.212C12.9538 14.812 15.1854 12.5811 15.1867 9.83896C15.1871 8.51007 14.6701 7.26068 13.731 6.32074C12.7918 5.3808 11.5427 4.86276 10.2141 4.8623V4.8623ZM13.1401 11.9731C13.0155 12.3222 12.4181 12.6409 12.1308 12.684C11.8731 12.7224 11.5471 12.7384 11.1889 12.6248C10.9716 12.5558 10.6931 12.4638 10.3362 12.3098C8.8361 11.6622 7.85633 10.1522 7.78156 10.0524C7.70679 9.95264 7.1709 9.24173 7.1709 8.5058C7.1709 7.77002 7.55725 7.40823 7.69428 7.2587C7.83146 7.10901 7.9935 7.07162 8.09314 7.07162C8.19278 7.07162 8.29258 7.07254 8.3797 7.07681C8.47156 7.08139 8.59485 7.04187 8.71616 7.33347C8.84083 7.63284 9.1399 8.36862 9.17728 8.44339C9.21467 8.51831 9.23954 8.60559 9.18979 8.70538C9.1399 8.80518 8.97419 9.02048 8.81595 9.21671C8.74958 9.29895 8.66306 9.37219 8.75034 9.52188C8.83747 9.67142 9.13776 10.1611 9.58225 10.5575C10.1535 11.0668 10.6354 11.2246 10.785 11.2995C10.9343 11.3743 11.0216 11.3618 11.1089 11.2621C11.196 11.1624 11.4827 10.8256 11.5824 10.6759C11.682 10.5262 11.7818 10.5512 11.9188 10.6011C12.056 10.6509 12.7912 11.0127 12.9407 11.0874C13.0903 11.1624 13.1899 11.1997 13.2273 11.2621C13.2648 11.3246 13.2648 11.6238 13.1401 11.9731V11.9731Z" fill="#00A8CC"/>
</svg>
